<?xml version="1.0" encoding="utf-8"?>
<!-- Generator: Adobe Illustrator 26.0.1, SVG Export Plug-In . SVG Version: 6.00 Build 0)  -->
<svg version="1.1" id="Layer_1" xmlns="http://www.w3.org/2000/svg" xmlns:xlink="http://www.w3.org/1999/xlink" x="0px" y="0px"
	 viewBox="0 0 679.56 611.87" style="enable-background:new 0 0 679.56 611.87;" xml:space="preserve">
<style type="text/css">
	.st0{fill:#8A69F8;}
	.st1{fill:#2D00F7;}
	.st2{fill:url(#SVGID_1_);}
	.st3{fill:url(#SVGID_00000097497038336790234400000001932957466977956270_);}
	.st4{fill:url(#SVGID_00000183951730462870895020000013501158321938133133_);}
	.st5{fill:url(#SVGID_00000068674803740559788690000002865154950924746395_);}
	.st6{fill:url(#SVGID_00000112605558871581590490000012991069681929250178_);}
	.st7{fill:url(#SVGID_00000154406427785395382570000016500874069663059360_);}
	.st8{fill:url(#SVGID_00000085959505267138094330000009465756883748687505_);}
	.st9{fill:url(#SVGID_00000024695384650426648510000016057723686337622425_);}
	.st10{fill:none;stroke:#FFFFFF;stroke-miterlimit:10;}
	.st11{fill:#F5E3FF;}
	.st12{fill:#C00CFF;}
	.st13{fill:#9C36FF;}
	.st14{fill:#EFA1EC;}
	.st15{fill:#CC66FF;}
	.st16{fill:url(#SVGID_00000007389286215659133340000003304651582115475332_);}
	.st17{fill:url(#SVGID_00000174601049984111668540000004029108208593328024_);}
	.st18{fill:url(#SVGID_00000114059638398480553550000000519805533178224540_);}
	.st19{fill:url(#SVGID_00000002358453559077583220000006836531751189196979_);}
	.st20{fill:url(#SVGID_00000026121689086931078300000008874016634633942717_);}
	.st21{fill:url(#SVGID_00000128453254596499056170000012936353285738209446_);}
	.st22{fill:url(#SVGID_00000068645476746276647700000015570103445755612571_);}
	.st23{fill:#DCB4F9;}
	.st24{fill:#D0A4F7;}
	.st25{fill:url(#SVGID_00000142874852093004430230000006110731917143495352_);}
	.st26{fill:url(#SVGID_00000057854697965396215300000000626082734180383124_);}
	.st27{fill:url(#SVGID_00000107560334041020637800000003174437414296269750_);}
	.st28{fill:url(#SVGID_00000005959023661884130610000007252292684383904145_);}
	.st29{fill:#E9D93D;}
	.st30{fill:#1D1D1B;}
	.st31{fill:#FFFFFF;}
	.st32{fill:url(#SVGID_00000075141358357209193080000014853188275397533329_);}
	.st33{fill:url(#SVGID_00000109730546550450328710000011149864271622355368_);}
	.st34{fill:url(#SVGID_00000060004444594886811370000012010025059871125901_);}
	.st35{fill:#1D1D1B;stroke:#FFFFFF;stroke-miterlimit:10;}
	.st36{fill:#2019BA;}
	.st37{fill:none;stroke:#1D1D1B;stroke-width:0.5;stroke-miterlimit:10;}
	.st38{fill:#4CC9F0;}
	.st39{fill:#8A7CFA;}
	.st40{fill:#F6E3FF;}
	.st41{fill:url(#SVGID_00000076580026777306933830000011626517817592311720_);}
	.st42{fill:url(#SVGID_00000127749181370448420810000000263460517758561683_);}
	.st43{fill:url(#SVGID_00000090287970840004755470000000778849977546705317_);}
	.st44{fill:url(#SVGID_00000150808983532240697460000015337901210161789570_);}
</style>
<rect class="st0" width="679.56" height="198.3"/>
<g>
	<g>
		<path class="st31" d="M247.33,62.12l-0.01-1.76l-37.8,0.3l-1.59,0.01c-7.89,0.06-14.24,6.44-14.18,14.24v0l0.12,14.76l0.12,14.44
			l0.24,29.2h0c8.77-0.07,15.82-7.15,15.75-15.82l-0.11-13.5l10.48-0.08c8.07-0.06,14.56-6.58,14.49-14.56v0l-25.09,0.2l-0.12-14.76
			l25.28-0.2C241.83,74.53,247.38,68.95,247.33,62.12z"/>
		<path class="st31" d="M232.98,75.02h-23.16v0c0-7.93,6.43-14.35,14.35-14.35h23.16v0C247.33,68.59,240.9,75.02,232.98,75.02z"/>
		<path class="st31" d="M220.02,104.01h-10.2v0c0-7.93,6.43-14.35,14.35-14.35h10.2v0C234.37,97.58,227.94,104.01,220.02,104.01z"/>
	</g>
	<path class="st31" d="M250.45,60.71L250.45,60.71c5.91,0,10.7,4.73,10.7,10.57v45.36c0,2.51,0.39,4.13,1.17,4.87
		c0.78,0.74,1.75,1.11,2.92,1.11c1.23,0,2.45-0.16,3.65-0.48l0,0c1.61-0.43,3.24,0.59,3.54,2.2l0.98,5.2
		c-1.56,0.64-3.4,1.19-5.54,1.63c-2.14,0.45-4.05,0.67-5.74,0.67c-3.7,0-6.56-1.01-8.61-3.04c-2.04-2.02-3.06-4.84-3.06-8.44V60.71z
		"/>
	<path class="st31" d="M275.93,115.23c0-3.18,0.92-5.95,2.77-8.34c1.85-2.38,4.41-4.22,7.68-5.52c3.27-1.3,7.02-1.95,11.23-1.95
		c2.27,0,4.57,0.18,6.9,0.53c2.33,0.35,4.44,0.85,6.32,1.49l0-3.15c0-3.47-1.07-6.18-3.21-8.14c-2.14-1.96-5.22-2.93-9.24-2.93
		c-2.85,0-5.54,0.48-8.07,1.44c-0.52,0.2-1.04,0.41-1.57,0.65c-3.77,1.68-8.21,0.16-10.01-3.53v0c3.24-2.18,6.58-3.83,10.02-4.95
		c3.44-1.12,7.03-1.68,10.8-1.68c6.81,0,12.16,1.76,16.05,5.28c3.89,3.52,5.84,8.51,5.84,14.97v18.54c0,1.2,0.23,2.06,0.68,2.57
		c0.45,0.51,1.2,0.79,2.24,0.85l0,6.06c0,1.45-1.12,2.65-2.58,2.78l0,0c-0.75,0.06-1.38,0.13-1.9,0.19
		c-2.33-0.06-4.08-0.64-5.25-1.73c-1.17-1.09-1.85-2.37-2.04-3.85l-0.29-2.88c-2.14,2.82-4.94,5-8.41,6.54
		c-3.47,1.54-6.95,2.31-10.45,2.31c-3.37,0-6.39-0.68-9.04-2.05c-2.66-1.36-4.73-3.22-6.22-5.57
		C276.67,120.78,275.93,118.15,275.93,115.23z M308.31,118.34C308.31,118.33,308.32,118.33,308.31,118.34
		c0.72-0.89,1.31-1.73,1.8-2.55c0.49-0.82,0.73-1.58,0.73-2.27v-5.58c-1.82-0.69-3.73-1.21-5.74-1.56
		c-2.01-0.34-3.96-0.52-5.84-0.52c-3.96,0-7.15,0.76-9.58,2.27c-2.43,1.51-3.65,3.59-3.65,6.24c0,1.45,0.4,2.82,1.22,4.11
		c0.81,1.29,1.98,2.36,3.5,3.21c1.52,0.85,3.39,1.28,5.59,1.28c2.4,0,4.67-0.46,6.81-1.37C305.3,120.68,307.02,119.6,308.31,118.34z
		"/>
	<path class="st31" d="M369.49,129.79L369.49,129.79l0-27.84c0-4.69-0.78-8.09-2.33-10.21c-1.56-2.12-3.83-3.18-6.81-3.18
		c-2.08,0-4.13,0.52-6.18,1.56c-2.04,1.04-3.86,2.41-5.45,4.11c-1.59,1.7-2.77,3.69-3.55,5.96v19.04c0,5.84-4.79,10.58-10.7,10.58
		l0,0V89.51c0-5.31,4.35-9.61,9.73-9.61h0v9.99c1.3-2.22,2.98-4.13,5.06-5.71c2.07-1.59,4.44-2.82,7.1-3.71
		c2.66-0.89,5.48-1.33,8.46-1.33c3.05,0,5.58,0.54,7.59,1.62c2.01,1.08,3.57,2.56,4.67,4.43c1.1,1.87,1.88,4.03,2.33,6.47
		c0.45,2.45,0.68,5.03,0.68,7.76v19.9C380.09,125.1,375.34,129.79,369.49,129.79z"/>
	<path class="st31" d="M415.59,130.75c-3.96,0-7.54-0.68-10.75-2.05c-3.21-1.36-5.98-3.27-8.32-5.71c-2.33-2.44-4.13-5.22-5.4-8.33
		c-1.26-3.11-1.9-6.38-1.9-9.81c0-4.7,1.07-9,3.21-12.91c2.14-3.91,5.2-7.02,9.19-9.33c3.99-2.32,8.64-3.48,13.96-3.48
		c5.19,0,9.71,1.14,13.57,3.41c3.86,2.28,6.73,5.3,8.61,9.08l-0.85,0.26c-4.87,1.47-10.06,0.64-14.46-1.9
		c-0.02-0.01-0.04-0.02-0.06-0.04c-2.08-1.18-4.41-1.78-7-1.78c-2.85,0-5.43,0.71-7.73,2.13c-2.3,1.42-4.12,3.38-5.45,5.88
		c-1.33,2.5-1.99,5.39-1.99,8.67c0,3.22,0.68,6.1,2.04,8.63c1.36,2.53,3.21,4.53,5.54,6.02c2.33,1.49,4.89,2.23,7.68,2.23
		c1.75,0,3.44-0.3,5.06-0.91c1.62-0.61,3.06-1.46,4.33-2.55l0.04-0.03c2.25-1.94,5.36-2.6,8.21-1.73l4.83,1.47
		c-1.1,2.44-2.72,4.61-4.86,6.54c-2.14,1.92-4.7,3.45-7.68,4.57C422.43,130.19,419.15,130.75,415.59,130.75z"/>
	<path class="st31" d="M469.47,130.75c-4.02,0-7.62-0.69-10.8-2.05c-3.18-1.37-5.93-3.24-8.27-5.63c-2.33-2.39-4.13-5.12-5.4-8.21
		c-1.26-3.09-1.9-6.34-1.9-9.78c0-4.75,1.1-9.1,3.31-13.03c2.2-3.93,5.3-7.07,9.29-9.41c3.99-2.35,8.57-3.52,13.76-3.52
		c5.38,0,10,1.19,13.86,3.57c3.86,2.38,6.86,5.5,9,9.38c2.14,3.87,3.21,8.03,3.21,12.47c0,0.76-0.03,1.48-0.1,2.14
		c0,0.01,0,0.01,0,0.02c-0.09,0.88-0.84,1.55-1.74,1.55h-39.3c0.32,2.97,1.2,5.55,2.63,7.73c1.43,2.18,3.27,3.89,5.54,5.12
		c2.27,1.23,4.67,1.85,7.2,1.85c2.92,0,5.66-0.7,8.22-2.11c0.5-0.28,0.98-0.57,1.42-0.88c3.73-2.65,8.52-3.35,12.93-2.1l0,0
		c-1.1,2.44-2.79,4.63-5.06,6.59c-2.27,1.96-4.91,3.49-7.93,4.61C476.32,130.19,473.03,130.75,469.47,130.75z M454.2,101.34h30.73
		c-0.26-2.89-1.09-5.4-2.48-7.54c-1.39-2.14-3.23-3.82-5.5-5.04c-2.27-1.23-4.73-1.84-7.39-1.84c-2.72,0-5.2,0.61-7.44,1.84
		c-2.24,1.23-4.07,2.91-5.49,5.04C455.2,95.93,454.39,98.45,454.2,101.34z"/>
</g>
<rect y="198.77" class="st31" width="679.56" height="204.69"/>
<g>
	<g>
		<path class="st0" d="M242.47,265.67l-0.01-1.76l-37.8,0.3l-1.59,0.01c-7.89,0.06-14.24,6.44-14.18,14.24l0,0l0.12,14.76
			l0.12,14.44l0.24,29.2h0c8.77-0.07,15.82-7.15,15.75-15.82l-0.11-13.5l10.48-0.08c8.07-0.06,14.56-6.58,14.49-14.56l0,0
			l-25.09,0.2l-0.12-14.76l25.28-0.2C236.97,278.08,242.52,272.5,242.47,265.67z"/>
		<path class="st0" d="M228.11,278.56h-23.16l0,0c0-7.93,6.43-14.35,14.35-14.35h23.16l0,0
			C242.47,272.14,236.04,278.56,228.11,278.56z"/>
		<path class="st0" d="M215.16,307.56h-10.2v0c0-7.93,6.43-14.35,14.35-14.35h10.2l0,0C229.51,301.13,223.08,307.56,215.16,307.56z"
			/>
	</g>
	<path class="st0" d="M245.59,264.26L245.59,264.26c5.91,0,10.7,4.73,10.7,10.57v45.36c0,2.51,0.39,4.13,1.17,4.87
		c0.78,0.74,1.75,1.11,2.92,1.11c1.23,0,2.45-0.16,3.65-0.48l0,0c1.61-0.43,3.24,0.59,3.54,2.2l0.98,5.2
		c-1.56,0.64-3.4,1.19-5.54,1.63c-2.14,0.45-4.05,0.67-5.74,0.67c-3.7,0-6.56-1.01-8.61-3.04c-2.04-2.02-3.06-4.84-3.06-8.44V264.26
		z"/>
	<path class="st0" d="M271.07,318.78c0-3.18,0.92-5.95,2.77-8.34c1.85-2.38,4.41-4.22,7.68-5.52c3.27-1.3,7.02-1.95,11.23-1.95
		c2.27,0,4.57,0.18,6.9,0.53c2.33,0.35,4.44,0.85,6.32,1.49l0-3.15c0-3.47-1.07-6.18-3.21-8.14c-2.14-1.96-5.22-2.93-9.24-2.93
		c-2.85,0-5.54,0.48-8.07,1.44c-0.52,0.2-1.04,0.41-1.57,0.65c-3.77,1.68-8.21,0.16-10.01-3.53l0,0c3.24-2.18,6.58-3.83,10.02-4.95
		c3.44-1.12,7.03-1.68,10.8-1.68c6.81,0,12.16,1.76,16.05,5.28c3.89,3.52,5.84,8.51,5.84,14.97v18.54c0,1.2,0.23,2.06,0.68,2.57
		c0.45,0.51,1.2,0.79,2.24,0.85l0,6.06c0,1.45-1.12,2.65-2.58,2.78l0,0c-0.75,0.06-1.38,0.13-1.9,0.19
		c-2.33-0.06-4.08-0.64-5.25-1.73c-1.17-1.09-1.85-2.37-2.04-3.85l-0.29-2.88c-2.14,2.82-4.94,5-8.41,6.54
		c-3.47,1.54-6.95,2.31-10.45,2.31c-3.37,0-6.39-0.68-9.04-2.05c-2.66-1.36-4.73-3.22-6.22-5.57
		C271.81,324.33,271.07,321.7,271.07,318.78z M303.45,321.88C303.45,321.88,303.46,321.88,303.45,321.88
		c0.72-0.89,1.31-1.73,1.8-2.55c0.49-0.82,0.73-1.58,0.73-2.27v-5.58c-1.82-0.69-3.73-1.21-5.74-1.56
		c-2.01-0.34-3.96-0.52-5.84-0.52c-3.96,0-7.15,0.76-9.58,2.27c-2.43,1.51-3.65,3.59-3.65,6.24c0,1.45,0.4,2.82,1.22,4.11
		c0.81,1.29,1.98,2.36,3.5,3.21c1.52,0.85,3.39,1.28,5.59,1.28c2.4,0,4.67-0.46,6.81-1.37
		C300.44,324.23,302.16,323.15,303.45,321.88z"/>
	<path class="st0" d="M364.63,333.34L364.63,333.34l0-27.84c0-4.69-0.78-8.09-2.33-10.21c-1.56-2.12-3.83-3.18-6.81-3.18
		c-2.08,0-4.13,0.52-6.18,1.56c-2.04,1.04-3.86,2.41-5.45,4.11c-1.59,1.7-2.77,3.69-3.55,5.96v19.04c0,5.84-4.79,10.58-10.7,10.58h0
		v-40.28c0-5.31,4.35-9.61,9.73-9.61l0,0v9.99c1.3-2.22,2.98-4.13,5.06-5.71c2.07-1.59,4.44-2.82,7.1-3.71
		c2.66-0.89,5.48-1.33,8.46-1.33c3.05,0,5.58,0.54,7.59,1.62c2.01,1.08,3.57,2.56,4.67,4.43c1.1,1.87,1.88,4.03,2.33,6.47
		c0.45,2.45,0.68,5.03,0.68,7.76v19.9C375.23,328.65,370.48,333.34,364.63,333.34z"/>
	<path class="st0" d="M410.73,334.3c-3.96,0-7.54-0.68-10.75-2.05c-3.21-1.36-5.98-3.27-8.32-5.71c-2.33-2.44-4.13-5.22-5.4-8.33
		c-1.26-3.11-1.9-6.38-1.9-9.81c0-4.7,1.07-9,3.21-12.91c2.14-3.91,5.2-7.02,9.19-9.33c3.99-2.32,8.64-3.48,13.96-3.48
		c5.19,0,9.71,1.14,13.57,3.41c3.86,2.28,6.73,5.3,8.61,9.08l-0.85,0.26c-4.87,1.47-10.06,0.64-14.46-1.9
		c-0.02-0.01-0.04-0.02-0.06-0.04c-2.08-1.18-4.41-1.78-7-1.78c-2.85,0-5.43,0.71-7.73,2.13c-2.3,1.42-4.12,3.38-5.45,5.88
		c-1.33,2.5-1.99,5.39-1.99,8.67c0,3.22,0.68,6.1,2.04,8.63c1.36,2.53,3.21,4.53,5.54,6.02c2.33,1.49,4.89,2.23,7.68,2.23
		c1.75,0,3.44-0.3,5.06-0.91c1.62-0.61,3.06-1.46,4.33-2.55l0.04-0.03c2.25-1.94,5.36-2.6,8.21-1.73l4.83,1.47
		c-1.1,2.44-2.72,4.61-4.86,6.54c-2.14,1.92-4.7,3.45-7.68,4.57C417.57,333.74,414.29,334.3,410.73,334.3z"/>
	<path class="st0" d="M464.6,334.3c-4.02,0-7.62-0.69-10.8-2.05c-3.18-1.37-5.93-3.24-8.27-5.63c-2.33-2.39-4.13-5.12-5.4-8.21
		c-1.26-3.09-1.9-6.34-1.9-9.78c0-4.75,1.1-9.1,3.31-13.03c2.2-3.93,5.3-7.07,9.29-9.41c3.99-2.35,8.57-3.52,13.76-3.52
		c5.38,0,10,1.19,13.86,3.57c3.86,2.38,6.86,5.5,9,9.38c2.14,3.87,3.21,8.03,3.21,12.47c0,0.76-0.03,1.48-0.1,2.14
		c0,0.01,0,0.01,0,0.02c-0.09,0.88-0.84,1.55-1.74,1.55h-39.3c0.32,2.97,1.2,5.55,2.63,7.73c1.43,2.18,3.27,3.89,5.54,5.12
		c2.27,1.23,4.67,1.85,7.2,1.85c2.92,0,5.66-0.7,8.22-2.11c0.5-0.28,0.98-0.57,1.42-0.88c3.73-2.65,8.52-3.35,12.93-2.1l0,0
		c-1.1,2.44-2.79,4.63-5.06,6.59c-2.27,1.96-4.91,3.49-7.93,4.61C471.46,333.74,468.17,334.3,464.6,334.3z M449.34,304.89h30.73
		c-0.26-2.89-1.09-5.4-2.48-7.54c-1.39-2.14-3.23-3.82-5.5-5.04c-2.27-1.23-4.73-1.84-7.39-1.84c-2.72,0-5.2,0.61-7.44,1.84
		c-2.24,1.23-4.07,2.91-5.49,5.04C450.34,299.48,449.53,301.99,449.34,304.89z"/>
</g>
<rect y="403.93" class="st40" width="679.56" height="207.94"/>
<g>
	<g>
		<path class="st0" d="M243.47,464.5l-0.01-1.76l-37.8,0.3l-1.59,0.01c-7.89,0.06-14.24,6.44-14.18,14.24l0,0l0.12,14.76l0.12,14.44
			l0.24,29.2h0c8.77-0.07,15.82-7.15,15.75-15.82l-0.11-13.5l10.48-0.08c8.07-0.06,14.56-6.58,14.49-14.56l0,0l-25.09,0.2
			l-0.12-14.76l25.28-0.2C237.97,476.91,243.52,471.33,243.47,464.5z"/>
		<path class="st0" d="M229.11,477.39h-23.16l0,0c0-7.93,6.43-14.35,14.35-14.35h23.16l0,0
			C243.47,470.97,237.04,477.39,229.11,477.39z"/>
		<path class="st0" d="M216.16,506.39h-10.2v0c0-7.93,6.43-14.35,14.35-14.35h10.2l0,0C230.51,499.96,224.08,506.39,216.16,506.39z"
			/>
	</g>
	<path class="st0" d="M246.59,463.09L246.59,463.09c5.91,0,10.7,4.73,10.7,10.57v45.36c0,2.51,0.39,4.13,1.17,4.87
		c0.78,0.74,1.75,1.11,2.92,1.11c1.23,0,2.45-0.16,3.65-0.48l0,0c1.61-0.43,3.24,0.59,3.54,2.2l0.98,5.2
		c-1.56,0.64-3.4,1.19-5.54,1.63c-2.14,0.45-4.05,0.67-5.74,0.67c-3.7,0-6.56-1.01-8.61-3.04c-2.04-2.02-3.06-4.84-3.06-8.44V463.09
		z"/>
	<path class="st0" d="M272.07,517.61c0-3.18,0.92-5.95,2.77-8.34c1.85-2.38,4.41-4.22,7.68-5.52c3.27-1.3,7.02-1.95,11.23-1.95
		c2.27,0,4.57,0.18,6.9,0.53c2.33,0.35,4.44,0.85,6.32,1.49l0-3.15c0-3.47-1.07-6.18-3.21-8.14c-2.14-1.96-5.22-2.93-9.24-2.93
		c-2.85,0-5.54,0.48-8.07,1.44c-0.52,0.2-1.04,0.41-1.57,0.65c-3.77,1.68-8.21,0.16-10.01-3.53v0c3.24-2.18,6.58-3.83,10.02-4.95
		c3.44-1.12,7.03-1.68,10.8-1.68c6.81,0,12.16,1.76,16.05,5.28c3.89,3.52,5.84,8.51,5.84,14.97v18.54c0,1.2,0.23,2.06,0.68,2.57
		c0.45,0.51,1.2,0.79,2.24,0.85l0,6.06c0,1.45-1.12,2.65-2.58,2.78l0,0c-0.75,0.06-1.38,0.13-1.9,0.19
		c-2.33-0.06-4.08-0.64-5.25-1.73c-1.17-1.09-1.85-2.37-2.04-3.85l-0.29-2.88c-2.14,2.82-4.94,5-8.41,6.54
		c-3.47,1.54-6.95,2.31-10.45,2.31c-3.37,0-6.39-0.68-9.04-2.05c-2.66-1.36-4.73-3.22-6.22-5.57
		C272.81,523.16,272.07,520.53,272.07,517.61z M304.45,520.71C304.45,520.71,304.46,520.71,304.45,520.71
		c0.72-0.89,1.31-1.73,1.8-2.55c0.49-0.82,0.73-1.58,0.73-2.27v-5.58c-1.82-0.69-3.73-1.21-5.74-1.56
		c-2.01-0.34-3.96-0.52-5.84-0.52c-3.96,0-7.15,0.76-9.58,2.27c-2.43,1.51-3.65,3.59-3.65,6.24c0,1.45,0.4,2.82,1.22,4.11
		c0.81,1.29,1.98,2.36,3.5,3.21c1.52,0.85,3.39,1.28,5.59,1.28c2.4,0,4.67-0.46,6.81-1.37
		C301.44,523.06,303.16,521.98,304.45,520.71z"/>
	<path class="st0" d="M365.63,532.17L365.63,532.17v-27.84c0-4.69-0.78-8.09-2.33-10.21c-1.56-2.12-3.83-3.18-6.81-3.18
		c-2.08,0-4.13,0.52-6.18,1.56c-2.04,1.04-3.86,2.41-5.45,4.11c-1.59,1.7-2.77,3.69-3.55,5.96v19.04c0,5.84-4.79,10.58-10.7,10.58h0
		v-40.28c0-5.31,4.35-9.61,9.73-9.61l0,0v9.99c1.3-2.22,2.98-4.13,5.06-5.71c2.07-1.59,4.44-2.82,7.1-3.71
		c2.66-0.89,5.48-1.33,8.46-1.33c3.05,0,5.58,0.54,7.59,1.62c2.01,1.08,3.57,2.56,4.67,4.43c1.1,1.87,1.88,4.03,2.33,6.47
		c0.45,2.45,0.68,5.03,0.68,7.76v19.9C376.23,527.48,371.48,532.17,365.63,532.17z"/>
	<path class="st0" d="M411.73,533.13c-3.96,0-7.54-0.68-10.75-2.05c-3.21-1.36-5.98-3.27-8.32-5.71c-2.33-2.44-4.13-5.22-5.4-8.33
		c-1.26-3.11-1.9-6.38-1.9-9.81c0-4.7,1.07-9,3.21-12.91c2.14-3.91,5.2-7.02,9.19-9.33c3.99-2.32,8.64-3.48,13.96-3.48
		c5.19,0,9.71,1.14,13.57,3.41c3.86,2.28,6.73,5.3,8.61,9.08l-0.85,0.26c-4.87,1.47-10.06,0.64-14.46-1.9
		c-0.02-0.01-0.04-0.02-0.06-0.04c-2.08-1.18-4.41-1.78-7-1.78c-2.85,0-5.43,0.71-7.73,2.13c-2.3,1.42-4.12,3.38-5.45,5.88
		c-1.33,2.5-1.99,5.39-1.99,8.67c0,3.22,0.68,6.1,2.04,8.63c1.36,2.53,3.21,4.53,5.54,6.02c2.33,1.49,4.89,2.23,7.68,2.23
		c1.75,0,3.44-0.3,5.06-0.91c1.62-0.61,3.06-1.46,4.33-2.55l0.04-0.03c2.25-1.94,5.36-2.6,8.21-1.73l4.83,1.47
		c-1.1,2.44-2.72,4.61-4.86,6.54c-2.14,1.92-4.7,3.45-7.68,4.57C418.57,532.57,415.29,533.13,411.73,533.13z"/>
	<path class="st0" d="M465.6,533.13c-4.02,0-7.62-0.69-10.8-2.05c-3.18-1.37-5.93-3.24-8.27-5.63c-2.33-2.39-4.13-5.12-5.4-8.21
		c-1.26-3.09-1.9-6.34-1.9-9.78c0-4.75,1.1-9.1,3.31-13.03c2.2-3.93,5.3-7.07,9.29-9.41c3.99-2.35,8.57-3.52,13.76-3.52
		c5.38,0,10,1.19,13.86,3.57c3.86,2.38,6.86,5.5,9,9.38c2.14,3.87,3.21,8.03,3.21,12.47c0,0.76-0.03,1.48-0.1,2.14
		c0,0.01,0,0.01,0,0.02c-0.09,0.88-0.84,1.55-1.74,1.55h-39.3c0.32,2.97,1.2,5.55,2.63,7.73c1.43,2.18,3.27,3.89,5.54,5.12
		c2.27,1.23,4.67,1.85,7.2,1.85c2.92,0,5.66-0.7,8.22-2.11c0.5-0.28,0.98-0.57,1.42-0.88c3.73-2.65,8.52-3.35,12.93-2.1l0,0
		c-1.1,2.44-2.79,4.63-5.06,6.59c-2.27,1.96-4.91,3.49-7.93,4.61C472.46,532.57,469.17,533.13,465.6,533.13z M450.34,503.72h30.73
		c-0.26-2.89-1.09-5.4-2.48-7.54c-1.39-2.14-3.23-3.82-5.5-5.04c-2.27-1.23-4.73-1.84-7.39-1.84c-2.72,0-5.2,0.61-7.44,1.84
		c-2.24,1.23-4.07,2.91-5.49,5.04C451.34,498.31,450.53,500.82,450.34,503.72z"/>
</g>
</svg>
